<svg id="Layer_1" data-name="Layer 1" xmlns="http://www.w3.org/2000/svg" viewBox="0 0 297.17 285.47"><defs><style>.cls-1{isolation:isolate;}.cls-2{fill:#df0000;}.cls-3{fill:#b40000;}.cls-4{fill:#820000;}</style></defs><title>heart-3d</title><g class="cls-1"><polygon points="297.1 97.56 297.07 116.03 279.95 118.44 279.99 99.97 297.1 97.56"/><polygon points="279.95 118.44 257.16 106.04 257.19 87.57 279.99 99.97 279.95 118.44"/><polygon points="279.99 99.97 257.19 87.57 274.31 85.17 297.1 97.56 279.99 99.97"/><polygon points="297.14 79.09 297.1 97.56 279.99 99.97 280.02 81.49 297.14 79.09"/><polygon points="279.99 99.97 257.19 87.57 257.23 69.09 280.02 81.49 279.99 99.97"/><polygon points="280.02 81.49 257.23 69.09 274.34 66.69 297.14 79.09 280.02 81.49"/></g><g class="cls-1"><polygon points="297.17 60.61 297.14 79.09 280.02 81.49 280.05 63.02 297.17 60.61"/><polygon points="280.02 81.49 257.23 69.09 257.26 50.62 280.05 63.02 280.02 81.49"/><polygon points="280.05 63.02 257.26 50.62 274.38 48.21 297.17 60.61 280.05 63.02"/></g><g class="cls-1"><polygon points="279.92 136.91 279.88 155.39 262.76 157.8 262.8 139.32 279.92 136.91"/><polygon points="262.76 157.8 239.97 145.4 240 126.92 262.8 139.32 262.76 157.8"/><polygon points="262.8 139.32 240 126.92 257.12 124.52 279.92 136.91 262.8 139.32"/><polygon points="246.09 160.61 223.3 148.22 223.3 147.74 246.09 160.14 246.09 160.61"/><polygon points="246.09 160.14 223.3 147.74 239.97 145.4 262.76 157.8 246.09 160.14"/><polygon points="245.62 178.67 222.83 166.27 222.86 148.28 245.65 160.68 245.62 178.67"/><polygon points="245.65 160.68 222.86 148.28 223.3 148.22 246.09 160.61 245.65 160.68"/><polygon points="262.76 157.8 262.73 176.26 245.62 178.67 245.65 160.68 246.09 160.61 246.09 160.14 262.76 157.8"/><polygon points="262.8 139.32 240 126.92 240.04 108.44 262.83 120.84 262.8 139.32"/><polygon points="279.95 118.44 279.92 136.91 262.8 139.32 262.83 120.84 279.95 118.44"/><polygon points="262.83 120.84 240.04 108.44 257.16 106.04 279.95 118.44 262.83 120.84"/><polygon points="245.62 178.67 245.59 197.15 228.47 199.55 228.5 181.07 245.62 178.67"/><polygon points="228.5 181.07 205.71 168.68 222.83 166.27 245.62 178.67 228.5 181.07"/><polygon points="228.47 199.55 205.67 187.15 205.71 168.68 228.5 181.07 228.47 199.55"/><polygon class="cls-2" points="262.8 139.32 262.76 157.8 246.09 160.14 246.13 141.66 262.8 139.32"/><polygon class="cls-3" points="246.13 141.66 223.34 129.26 240 126.92 262.8 139.32 246.13 141.66"/><polygon class="cls-4" points="246.09 160.14 223.3 147.74 223.34 129.26 246.13 141.66 246.09 160.14"/><polygon class="cls-4" points="246.13 141.66 223.34 129.26 223.34 128.78 246.13 141.18 246.13 141.66"/><polygon class="cls-4" points="245.21 159.78 222.41 147.38 222.44 129.86 245.24 142.26 245.21 159.78"/><polygon class="cls-3" points="245.69 141.24 222.9 128.84 223.34 128.78 246.13 141.18 245.69 141.24"/><polygon class="cls-4" points="245.69 141.72 222.89 129.32 222.9 128.84 245.69 141.24 245.69 141.72"/><polygon points="211.35 201.96 188.56 189.56 205.67 187.15 228.47 199.55 211.35 201.96"/><polygon points="228.47 199.55 228.43 218.03 211.31 220.43 211.35 201.96 228.47 199.55"/><polygon points="211.31 220.43 188.52 208.03 188.56 189.56 211.35 201.96 211.31 220.43"/><polygon points="177.47 262.12 154.67 249.72 154.67 249.24 177.47 261.64 177.47 262.12"/><polygon points="176.53 280.24 153.74 267.84 153.77 250.33 176.57 262.73 176.53 280.24"/><polygon points="177.02 262.19 154.22 249.79 154.22 249.3 177.02 261.7 177.02 262.19"/><polygon points="177.02 261.7 154.22 249.3 154.67 249.24 177.47 261.64 177.02 261.7"/><polygon class="cls-4" points="262.83 120.84 240.04 108.44 240.07 89.98 262.87 102.38 262.83 120.84"/><polygon class="cls-2" points="279.99 99.97 279.95 118.44 262.83 120.84 262.87 102.38 279.99 99.97"/><polygon class="cls-3" points="262.87 102.38 240.07 89.98 257.19 87.57 279.99 99.97 262.87 102.38"/><polygon class="cls-2" points="245.65 160.68 245.62 178.67 228.5 181.07 228.53 163.08 245.65 160.68"/><polygon class="cls-4" points="228.5 181.07 205.71 168.68 205.74 150.68 228.53 163.08 228.5 181.07"/><polygon class="cls-3" points="228.53 163.08 205.74 150.68 222.86 148.28 245.65 160.68 228.53 163.08"/><polygon class="cls-3" points="228.98 162.06 206.19 149.66 222.41 147.38 245.21 159.78 228.98 162.06"/><polygon class="cls-4" points="228.53 163.08 205.74 150.68 205.74 150.21 228.53 162.61 228.53 163.08"/><polygon class="cls-4" points="228.98 162.06 206.19 149.66 206.22 132.14 229.02 144.54 228.98 162.06"/><polygon class="cls-2" points="245.24 142.26 245.21 159.78 228.98 162.06 229.02 144.54 245.24 142.26"/><polygon class="cls-3" points="229.02 144.54 206.22 132.14 222.44 129.86 245.24 142.26 229.02 144.54"/><polygon class="cls-4" points="245.69 141.24 222.9 128.84 222.93 110.85 245.72 123.25 245.69 141.24"/><polygon class="cls-3" points="228.57 144.13 205.78 131.73 222.89 129.32 245.69 141.72 228.57 144.13"/><polygon class="cls-2" points="245.72 123.25 245.69 141.24 245.69 141.72 228.57 144.13 228.6 125.65 245.72 123.25"/><polygon class="cls-4" points="228.57 144.13 205.78 131.73 205.81 113.25 228.6 125.65 228.57 144.13"/><polygon class="cls-4" points="228.53 162.61 205.74 150.21 205.78 131.73 228.57 144.13 228.53 162.61"/><polygon class="cls-3" points="211.45 146.54 188.66 134.14 205.78 131.73 228.57 144.13 211.45 146.54"/><polygon class="cls-2" points="228.6 125.65 228.57 144.13 211.45 146.54 211.49 128.06 228.6 125.65"/><path class="cls-2" d="M366.2,224.48l.44-.06v.48l0,18.48v.48l-.44.06L349,246.32v-.47l0-18.48,17.11-2.4ZM365.71,243l0-17.52-16.22,2.28,0,17.52L365.71,243" transform="translate(-120.51 -83.24)"/><polygon class="cls-3" points="228.09 162.67 205.29 150.27 205.74 150.21 228.53 162.61 228.09 162.67"/><polygon points="211.31 220.43 211.28 238.9 194.17 241.31 194.2 222.84 211.31 220.43"/><polygon points="194.17 241.31 171.38 228.91 171.41 210.44 194.2 222.84 194.17 241.31"/><polygon points="194.2 222.84 171.41 210.44 188.52 208.03 211.31 220.43 194.2 222.84"/><polygon points="160.31 282.52 137.52 270.12 153.74 267.84 176.53 280.24 160.31 282.52"/><polygon points="159.42 283.13 136.63 270.73 137.07 270.67 159.86 283.07 159.42 283.13"/><polygon points="159.42 283.61 136.63 271.21 136.63 270.73 159.42 283.13 159.42 283.61"/><polygon class="cls-2" points="262.83 120.84 262.8 139.32 246.13 141.66 246.13 141.18 245.69 141.24 245.72 123.25 262.83 120.84"/><polygon class="cls-3" points="245.72 123.25 222.93 110.85 240.04 108.44 262.83 120.84 245.72 123.25"/><polygon class="cls-4" points="211.35 201.96 188.56 189.56 188.59 171.08 211.38 183.48 211.35 201.96"/><polygon class="cls-2" points="228.5 181.07 228.47 199.55 211.35 201.96 211.38 183.48 228.5 181.07"/><polygon class="cls-3" points="211.38 183.48 188.59 171.08 205.71 168.68 228.5 181.07 211.38 183.48"/><polygon points="177.02 261.7 154.22 249.3 154.26 231.31 177.05 243.71 177.02 261.7"/><polygon points="177.05 243.71 154.26 231.31 171.38 228.91 194.17 241.31 177.05 243.71"/><polygon points="194.17 241.31 194.13 259.78 177.47 262.12 177.47 261.64 177.02 261.7 177.05 243.71 194.17 241.31"/><polygon class="cls-2" points="280.02 81.49 279.99 99.97 262.87 102.38 262.9 83.9 280.02 81.49"/><polygon class="cls-3" points="262.9 83.9 240.11 71.5 257.23 69.09 280.02 81.49 262.9 83.9"/><polygon class="cls-4" points="262.87 102.38 240.07 89.98 240.11 71.5 262.9 83.9 262.87 102.38"/><polygon class="cls-2" points="211.35 201.96 211.31 220.43 194.2 222.84 194.24 204.36 211.35 201.96"/><polygon class="cls-4" points="194.2 222.84 171.41 210.44 171.44 191.96 194.24 204.36 194.2 222.84"/><polygon class="cls-3" points="194.24 204.36 171.44 191.96 188.56 189.56 211.35 201.96 194.24 204.36"/><polygon points="160.31 282.52 137.52 270.12 137.55 252.61 160.35 265 160.31 282.52"/><path d="M297.52,344.94l.45-.06v.49l0,18.95-18,2.53v-.48l.44-.06,0-18.48,17.12-2.4ZM297,363.48l0-17.51-16.22,2.28,0,17.51L297,363.48" transform="translate(-120.51 -83.24)"/><polygon points="160.35 265 137.55 252.61 153.77 250.33 176.57 262.73 160.35 265"/><polygon points="176.57 262.73 176.53 280.24 160.31 282.52 160.35 265 176.57 262.73"/><polygon points="159.86 283.07 137.07 270.67 137.1 252.19 159.9 264.59 159.86 283.07"/><polygon points="159.9 264.59 137.1 252.19 154.22 249.79 177.02 262.19 159.9 264.59"/><polygon class="cls-2" points="262.87 102.38 262.83 120.84 245.72 123.25 245.76 104.78 262.87 102.38"/><polygon class="cls-3" points="245.76 104.78 222.96 92.38 240.07 89.98 262.87 102.38 245.76 104.78"/><polygon class="cls-4" points="245.72 123.25 222.93 110.85 222.96 92.38 245.76 104.78 245.72 123.25"/><polygon class="cls-2" points="228.53 162.61 228.53 163.08 228.5 181.07 211.38 183.48 211.42 165.01 228.09 162.67 228.53 162.61"/><polygon class="cls-3" points="211.42 165.01 188.62 152.61 205.29 150.27 228.09 162.67 211.42 165.01"/><polygon class="cls-4" points="211.38 183.48 188.59 171.08 188.62 152.61 211.42 165.01 211.38 183.48"/><polygon class="cls-4" points="177.05 243.71 154.26 231.31 154.29 212.84 177.09 225.24 177.05 243.71"/><polygon class="cls-2" points="194.2 222.84 194.17 241.31 177.05 243.71 177.09 225.24 194.2 222.84"/><polygon class="cls-3" points="177.09 225.24 154.29 212.84 171.41 210.44 194.2 222.84 177.09 225.24"/><polygon class="cls-3" points="262.94 65.42 240.14 53.02 257.26 50.62 280.05 63.02 262.94 65.42"/><polygon class="cls-2" points="280.05 63.02 280.02 81.49 262.9 83.9 262.94 65.42 280.05 63.02"/><polygon class="cls-4" points="262.9 83.9 240.11 71.5 240.14 53.02 262.94 65.42 262.9 83.9"/><polygon class="cls-3" points="228.6 125.65 205.81 113.25 222.93 110.85 245.72 123.25 228.6 125.65"/><polygon class="cls-2" points="211.38 183.48 211.35 201.96 194.24 204.36 194.27 185.88 211.38 183.48"/><polygon class="cls-3" points="194.27 185.88 171.48 173.49 188.59 171.08 211.38 183.48 194.27 185.88"/><polygon class="cls-4" points="194.24 204.36 171.44 191.96 171.48 173.49 194.27 185.88 194.24 204.36"/><polygon class="cls-2" points="177.05 243.71 177.02 261.7 177.02 262.19 159.9 264.59 159.93 246.12 177.05 243.71"/><polygon class="cls-4" points="159.9 264.59 137.1 252.19 137.14 233.72 159.93 246.12 159.9 264.59"/><polygon class="cls-3" points="159.93 246.12 137.14 233.72 154.26 231.31 177.05 243.71 159.93 246.12"/><polygon class="cls-2" points="262.9 83.9 262.87 102.38 245.76 104.78 245.79 86.3 262.9 83.9"/><polygon class="cls-4" points="245.76 104.78 222.96 92.38 223 73.91 245.79 86.3 245.76 104.78"/><polygon class="cls-3" points="245.79 86.3 223 73.91 240.11 71.5 262.9 83.9 245.79 86.3"/><polygon class="cls-4" points="211.42 165.01 188.62 152.61 188.66 134.14 211.45 146.54 211.42 165.01"/><polygon class="cls-2" points="228.57 144.13 228.53 162.61 228.09 162.67 211.42 165.01 211.45 146.54 228.57 144.13"/><polygon class="cls-4" points="177.09 225.24 154.29 212.84 154.33 194.37 177.12 206.77 177.09 225.24"/><polygon class="cls-3" points="177.12 206.77 154.33 194.37 171.44 191.96 194.24 204.36 177.12 206.77"/><polygon class="cls-2" points="194.24 204.36 194.2 222.84 177.09 225.24 177.12 206.77 194.24 204.36"/><polygon points="262.97 46.94 240.18 34.54 257.29 32.13 280.09 44.53 262.97 46.94"/><polygon points="280.09 44.53 280.05 63.02 262.94 65.42 262.97 46.94 280.09 44.53"/><polygon points="262.94 65.42 240.14 53.02 240.18 34.54 262.97 46.94 262.94 65.42"/><polygon points="142.75 285.47 119.96 273.07 120 254.6 142.79 267 142.75 285.47"/><polygon points="142.79 267 120 254.6 137.1 252.19 159.9 264.59 142.79 267"/><polygon points="159.9 264.59 159.86 283.07 159.42 283.13 142.75 285.47 142.79 267 159.9 264.59"/><polygon class="cls-2" points="245.76 104.78 245.72 123.25 228.6 125.65 228.64 107.19 245.76 104.78"/><polygon class="cls-4" points="228.6 125.65 205.81 113.25 205.84 94.79 228.64 107.19 228.6 125.65"/><polygon class="cls-3" points="228.64 107.19 205.84 94.79 222.96 92.38 245.76 104.78 228.64 107.19"/><polygon class="cls-2" points="211.42 165.01 211.38 183.48 194.27 185.88 194.31 167.42 211.42 165.01"/><polygon class="cls-3" points="194.31 167.42 171.51 155.02 188.62 152.61 211.42 165.01 194.31 167.42"/><polygon class="cls-4" points="194.27 185.88 171.48 173.49 171.51 155.02 194.31 167.42 194.27 185.88"/><polygon class="cls-2" points="177.09 225.24 177.05 243.71 159.93 246.12 159.97 227.65 177.09 225.24"/><polygon class="cls-3" points="159.97 227.65 137.17 215.25 154.29 212.84 177.09 225.24 159.97 227.65"/><polygon class="cls-4" points="159.93 246.12 137.14 233.72 137.17 215.25 159.97 227.65 159.93 246.12"/><polygon class="cls-3" points="245.82 67.83 223.03 55.43 240.14 53.02 262.94 65.42 245.82 67.83"/><polygon class="cls-4" points="245.79 86.3 223 73.91 223.03 55.43 245.82 67.83 245.79 86.3"/><polygon class="cls-2" points="262.94 65.42 262.9 83.9 245.79 86.3 245.82 67.83 262.94 65.42"/><polygon class="cls-3" points="211.49 128.06 188.69 115.66 205.81 113.25 228.6 125.65 211.49 128.06"/><polygon class="cls-4" points="211.45 146.54 188.66 134.14 188.69 115.66 211.49 128.06 211.45 146.54"/><polygon class="cls-3" points="177.15 188.29 154.36 175.89 171.48 173.49 194.27 185.88 177.15 188.29"/><polygon class="cls-4" points="177.12 206.77 154.33 194.37 154.36 175.89 177.15 188.29 177.12 206.77"/><polygon class="cls-2" points="194.27 185.88 194.24 204.36 177.12 206.77 177.15 188.29 194.27 185.88"/><polygon class="cls-3" points="142.82 248.52 120.03 236.12 137.14 233.72 159.93 246.12 142.82 248.52"/><polygon class="cls-2" points="159.93 246.12 159.9 264.59 142.79 267 142.82 248.52 159.93 246.12"/><polygon class="cls-4" points="142.79 267 120 254.6 120.03 236.12 142.82 248.52 142.79 267"/><polygon class="cls-4" points="228.64 107.19 205.84 94.79 205.88 76.31 228.67 88.71 228.64 107.19"/><polygon class="cls-3" points="228.67 88.71 205.88 76.31 223 73.91 245.79 86.3 228.67 88.71"/><polygon class="cls-2" points="245.79 86.3 245.76 104.78 228.64 107.19 228.67 88.71 245.79 86.3"/><polygon class="cls-4" points="194.31 167.42 171.51 155.02 171.55 136.54 194.34 148.94 194.31 167.42"/><polygon class="cls-3" points="194.34 148.94 171.55 136.54 188.66 134.14 211.45 146.54 194.34 148.94"/><polygon class="cls-2" points="211.45 146.54 211.42 165.01 194.31 167.42 194.34 148.94 211.45 146.54"/><polygon class="cls-2" points="177.12 206.77 177.09 225.24 159.97 227.65 160 209.17 177.12 206.77"/><polygon class="cls-4" points="159.97 227.65 137.17 215.25 137.21 196.77 160 209.17 159.97 227.65"/><polygon class="cls-3" points="160 209.17 137.21 196.77 154.33 194.37 177.12 206.77 160 209.17"/><polygon class="cls-4" points="245.82 67.83 223.03 55.43 223.07 36.94 245.86 49.34 245.82 67.83"/><polygon class="cls-2" points="262.97 46.94 262.94 65.42 245.82 67.83 245.86 49.34 262.97 46.94"/><polygon class="cls-3" points="245.86 49.34 223.07 36.94 240.18 34.54 262.97 46.94 245.86 49.34"/><polygon class="cls-3" points="211.52 109.59 188.73 97.19 205.84 94.79 228.64 107.19 211.52 109.59"/><polygon class="cls-2" points="228.64 107.19 228.6 125.65 211.49 128.06 211.52 109.59 228.64 107.19"/><polygon class="cls-4" points="211.49 128.06 188.69 115.66 188.73 97.19 211.52 109.59 211.49 128.06"/><polygon class="cls-3" points="177.19 169.82 154.4 157.42 171.51 155.02 194.31 167.42 177.19 169.82"/><polygon class="cls-4" points="177.15 188.29 154.36 175.89 154.4 157.42 177.19 169.82 177.15 188.29"/><polygon class="cls-2" points="194.31 167.42 194.27 185.88 177.15 188.29 177.19 169.82 194.31 167.42"/><polygon class="cls-2" points="159.97 227.65 159.93 246.12 142.82 248.52 142.86 230.05 159.97 227.65"/><polygon class="cls-3" points="142.86 230.05 120.06 217.65 137.17 215.25 159.97 227.65 142.86 230.05"/><polygon class="cls-4" points="142.82 248.52 120.03 236.12 120.06 217.65 142.86 230.05 142.82 248.52"/><polygon class="cls-2" points="245.82 67.83 245.79 86.3 228.67 88.71 228.71 70.23 245.82 67.83"/><polygon class="cls-4" points="228.67 88.71 205.88 76.31 205.91 57.84 228.71 70.23 228.67 88.71"/><polygon class="cls-3" points="228.71 70.23 205.91 57.84 223.03 55.43 245.82 67.83 228.71 70.23"/><polygon class="cls-4" points="194.34 148.94 171.55 136.54 171.58 118.06 194.38 130.47 194.34 148.94"/><polygon class="cls-3" points="194.38 130.47 171.58 118.06 188.69 115.66 211.49 128.06 194.38 130.47"/><polygon class="cls-2" points="211.49 128.06 211.45 146.54 194.34 148.94 194.38 130.47 211.49 128.06"/><polygon class="cls-2" points="177.15 188.29 177.12 206.77 160 209.17 160.04 190.7 177.15 188.29"/><polygon class="cls-3" points="160.04 190.7 137.24 178.3 154.36 175.89 177.15 188.29 160.04 190.7"/><polygon class="cls-4" points="160 209.17 137.21 196.77 137.24 178.3 160.04 190.7 160 209.17"/><polygon points="245.86 49.34 223.07 36.94 223.1 18.48 245.89 30.88 245.86 49.34"/><polygon points="263 28.47 262.97 46.94 245.86 49.34 245.89 30.88 263 28.47"/><polygon points="245.89 30.88 223.1 18.48 240.21 16.07 263 28.47 245.89 30.88"/><polygon points="126.15 251.35 103.36 238.95 103.36 238.47 126.15 250.86 126.15 251.35"/><polygon points="126.15 250.86 103.36 238.47 120.03 236.12 142.82 248.52 126.15 250.86"/><polygon points="142.82 248.52 142.79 267 125.67 269.4 125.7 251.41 126.15 251.35 126.15 250.86 142.82 248.52"/><polygon points="125.67 269.4 102.88 257 102.91 239.01 125.7 251.41 125.67 269.4"/><polygon points="125.7 251.41 102.91 239.01 103.36 238.95 126.15 251.35 125.7 251.41"/><polygon class="cls-4" points="211.52 109.59 188.73 97.19 188.76 78.72 211.55 91.12 211.52 109.59"/><polygon class="cls-3" points="211.55 91.12 188.76 78.72 205.88 76.31 228.67 88.71 211.55 91.12"/><polygon class="cls-2" points="228.67 88.71 228.64 107.19 211.52 109.59 211.55 91.12 228.67 88.71"/><polygon class="cls-4" points="177.19 169.82 154.4 157.42 154.43 138.95 177.22 151.35 177.19 169.82"/><polygon class="cls-2" points="194.34 148.94 194.31 167.42 177.19 169.82 177.22 151.35 194.34 148.94"/><polygon class="cls-3" points="177.22 151.35 154.43 138.95 171.55 136.54 194.34 148.94 177.22 151.35"/><polygon class="cls-3" points="142.89 211.58 120.1 199.18 137.21 196.77 160 209.17 142.89 211.58"/><polygon class="cls-2" points="160 209.17 159.97 227.65 142.86 230.05 142.89 211.58 160 209.17"/><polygon class="cls-4" points="142.86 230.05 120.06 217.65 120.1 199.18 142.89 211.58 142.86 230.05"/><polygon class="cls-2" points="245.86 49.34 245.82 67.83 228.71 70.23 228.74 51.75 245.86 49.34"/><polygon class="cls-4" points="228.71 70.23 205.91 57.84 205.95 39.35 228.74 51.75 228.71 70.23"/><polygon class="cls-3" points="228.74 51.75 205.95 39.35 223.07 36.94 245.86 49.34 228.74 51.75"/><polygon class="cls-2" points="211.52 109.59 211.49 128.06 194.38 130.47 194.41 112 211.52 109.59"/><polygon class="cls-4" points="194.38 130.47 171.58 118.06 171.62 99.6 194.41 112 194.38 130.47"/><polygon class="cls-3" points="194.41 112 171.62 99.6 188.73 97.19 211.52 109.59 194.41 112"/><polygon class="cls-3" points="160.07 172.23 137.28 159.83 154.4 157.42 177.19 169.82 160.07 172.23"/><polygon class="cls-2" points="177.19 169.82 177.15 188.29 160.04 190.7 160.07 172.23 177.19 169.82"/><polygon class="cls-4" points="160.04 190.7 137.24 178.3 137.28 159.83 160.07 172.23 160.04 190.7"/><polygon class="cls-3" points="126.19 232.4 103.39 220 120.06 217.65 142.86 230.05 126.19 232.4"/><polygon class="cls-4" points="126.15 250.86 103.36 238.47 103.39 220 126.19 232.4 126.15 250.86"/><polygon class="cls-2" points="142.86 230.05 142.82 248.52 126.15 250.86 126.19 232.4 142.86 230.05"/><polygon class="cls-4" points="126.19 232.4 103.39 220 103.39 219.51 126.19 231.91 126.19 232.4"/><polygon points="125.26 250.51 102.46 238.12 102.5 220.6 125.29 233 125.26 250.51"/><polygon points="125.74 231.97 102.95 219.58 103.39 219.51 126.19 231.91 125.74 231.97"/><polygon points="125.74 232.46 102.94 220.06 102.95 219.58 125.74 231.97 125.74 232.46"/><polygon class="cls-3" points="211.59 72.64 188.79 60.24 205.91 57.84 228.71 70.23 211.59 72.64"/><polygon class="cls-2" points="228.71 70.23 228.67 88.71 211.55 91.12 211.59 72.64 228.71 70.23"/><polygon class="cls-4" points="211.55 91.12 188.76 78.72 188.79 60.24 211.59 72.64 211.55 91.12"/><polygon class="cls-4" points="177.22 151.35 154.43 138.95 154.46 120.47 177.26 132.87 177.22 151.35"/><polygon class="cls-2" points="194.38 130.47 194.34 148.94 177.22 151.35 177.26 132.87 194.38 130.47"/><polygon class="cls-3" points="177.26 132.87 154.46 120.47 171.58 118.06 194.38 130.47 177.26 132.87"/><polygon class="cls-2" points="160.04 190.7 160 209.17 142.89 211.58 142.93 193.1 160.04 190.7"/><polygon class="cls-3" points="142.93 193.1 120.13 180.7 137.24 178.3 160.04 190.7 142.93 193.1"/><polygon class="cls-4" points="142.89 211.58 120.1 199.18 120.13 180.7 142.93 193.1 142.89 211.58"/><polygon class="cls-4" points="228.74 51.75 205.95 39.35 205.98 20.88 228.78 33.28 228.74 51.75"/><polygon class="cls-3" points="228.78 33.28 205.98 20.88 223.1 18.48 245.89 30.88 228.78 33.28"/><polygon class="cls-2" points="245.89 30.88 245.86 49.34 228.74 51.75 228.78 33.28 245.89 30.88"/><polygon points="109.03 252.79 86.24 240.4 102.46 238.12 125.26 250.51 109.03 252.79"/><polygon class="cls-2" points="211.55 91.12 211.52 109.59 194.41 112 194.44 93.52 211.55 91.12"/><polygon class="cls-4" points="194.41 112 171.62 99.6 171.65 81.12 194.44 93.52 194.41 112"/><polygon class="cls-3" points="194.44 93.52 171.65 81.12 188.76 78.72 211.55 91.12 194.44 93.52"/><polygon class="cls-2" points="177.22 151.35 177.19 169.82 160.07 172.23 160.1 153.75 177.22 151.35"/><polygon class="cls-4" points="160.07 172.23 137.28 159.83 137.31 141.35 160.1 153.75 160.07 172.23"/><polygon class="cls-3" points="160.1 153.75 137.31 141.35 154.43 138.95 177.22 151.35 160.1 153.75"/><polygon class="cls-3" points="125.77 213.98 102.98 201.58 120.1 199.18 142.89 211.58 125.77 213.98"/><polygon class="cls-2" points="142.89 211.58 142.86 230.05 126.19 232.4 126.19 231.91 125.74 231.97 125.77 213.98 142.89 211.58"/><polygon class="cls-4" points="125.74 231.97 102.95 219.58 102.98 201.58 125.77 213.98 125.74 231.97"/><polygon class="cls-2" points="228.74 51.75 228.71 70.23 211.59 72.64 211.62 54.16 228.74 51.75"/><polygon class="cls-3" points="211.62 54.16 188.83 41.76 205.95 39.35 228.74 51.75 211.62 54.16"/><polygon class="cls-4" points="211.59 72.64 188.79 60.24 188.83 41.76 211.62 54.16 211.59 72.64"/><polygon class="cls-2" points="194.41 112 194.38 130.47 177.26 132.87 177.29 114.4 194.41 112"/><polygon class="cls-3" points="177.29 114.4 154.5 102 171.62 99.6 194.41 112 177.29 114.4"/><polygon class="cls-4" points="177.26 132.87 154.46 120.47 154.5 102 177.29 114.4 177.26 132.87"/><polygon class="cls-2" points="160.07 172.23 160.04 190.7 142.93 193.1 142.96 174.63 160.07 172.23"/><polygon class="cls-4" points="142.93 193.1 120.13 180.7 120.17 162.23 142.96 174.63 142.93 193.1"/><polygon class="cls-3" points="142.96 174.63 120.17 162.23 137.28 159.83 160.07 172.23 142.96 174.63"/><polygon points="109.07 235.28 86.28 222.88 102.5 220.6 125.29 233 109.07 235.28"/><polygon points="109.03 252.79 86.24 240.4 86.28 222.88 109.07 235.28 109.03 252.79"/><polygon points="108.62 234.87 85.83 222.47 102.94 220.06 125.74 232.46 108.62 234.87"/><polygon class="cls-4" points="108.62 234.87 85.83 222.47 85.86 203.99 108.65 216.39 108.62 234.87"/><path d="M246.25,315.22l.44-.07v.49l0,18.47v.48l-.45.06-17.56,2.47,0-18.95.44-.06,17.12-2.41Zm-.49,18.54,0-17.52-16.23,2.28,0,17.52,16.22-2.28" transform="translate(-120.51 -83.24)"/><polygon points="125.29 233 125.26 250.51 109.03 252.79 109.07 235.28 125.29 233"/><polygon points="228.78 33.28 205.98 20.88 206.02 2.41 228.81 14.8 228.78 33.28"/><polygon points="245.93 12.4 245.89 30.88 228.78 33.28 228.81 14.8 245.93 12.4"/><polygon points="228.81 14.8 206.02 2.41 223.13 0 245.93 12.4 228.81 14.8"/><polygon points="108.14 253.88 85.35 241.48 85.39 222.53 108.18 234.93 108.14 253.88"/><polygon points="108.18 234.93 85.39 222.53 85.83 222.47 108.62 234.87 108.18 234.93"/><polygon class="cls-2" points="211.59 72.64 211.55 91.12 194.44 93.52 194.48 75.04 211.59 72.64"/><polygon class="cls-3" points="194.48 75.04 171.69 62.65 188.79 60.24 211.59 72.64 194.48 75.04"/><polygon class="cls-4" points="194.44 93.52 171.65 81.12 171.69 62.65 194.48 75.04 194.44 93.52"/><polygon class="cls-3" points="160.14 135.28 137.34 122.88 154.46 120.47 177.26 132.87 160.14 135.28"/><polygon class="cls-2" points="177.26 132.87 177.22 151.35 160.1 153.75 160.14 135.28 177.26 132.87"/><polygon class="cls-4" points="160.1 153.75 137.31 141.35 137.34 122.88 160.14 135.28 160.1 153.75"/><polygon class="cls-3" points="125.81 195.51 103.01 183.11 120.13 180.7 142.93 193.1 125.81 195.51"/><polygon class="cls-2" points="142.93 193.1 142.89 211.58 125.77 213.98 125.81 195.51 142.93 193.1"/><polygon class="cls-4" points="125.77 213.98 102.98 201.58 103.01 183.11 125.81 195.51 125.77 213.98"/><polygon class="cls-2" points="228.78 33.28 228.74 51.75 211.62 54.16 211.66 35.69 228.78 33.28"/><polygon class="cls-3" points="211.66 35.69 188.86 23.29 205.98 20.88 228.78 33.28 211.66 35.69"/><polygon class="cls-4" points="211.62 54.16 188.83 41.76 188.86 23.29 211.66 35.69 211.62 54.16"/><polygon class="cls-2" points="194.44 93.52 194.41 112 177.29 114.4 177.32 95.93 194.44 93.52"/><polygon class="cls-3" points="177.32 95.93 154.53 83.53 171.65 81.12 194.44 93.52 177.32 95.93"/><polygon class="cls-4" points="177.29 114.4 154.5 102 154.53 83.53 177.32 95.93 177.29 114.4"/><polygon class="cls-4" points="142.96 174.63 120.17 162.23 120.2 143.76 142.99 156.16 142.96 174.63"/><polygon class="cls-3" points="142.99 156.16 120.2 143.76 137.31 141.35 160.1 153.75 142.99 156.16"/><polygon class="cls-2" points="160.1 153.75 160.07 172.23 142.96 174.63 142.99 156.16 160.1 153.75"/><polygon class="cls-3" points="108.65 216.39 85.86 203.99 102.98 201.58 125.77 213.98 108.65 216.39"/><polygon class="cls-2" points="125.77 213.98 125.74 231.97 125.74 232.46 108.62 234.87 108.65 216.39 125.77 213.98"/><polygon class="cls-2" points="211.62 54.16 211.59 72.64 194.48 75.04 194.51 56.56 211.62 54.16"/><polygon class="cls-3" points="194.51 56.56 171.72 44.16 188.83 41.76 211.62 54.16 194.51 56.56"/><polygon class="cls-4" points="194.48 75.04 171.69 62.65 171.72 44.16 194.51 56.56 194.48 75.04"/><polygon class="cls-4" points="160.14 135.28 137.34 122.88 137.38 104.41 160.17 116.81 160.14 135.28"/><polygon class="cls-2" points="177.29 114.4 177.26 132.87 160.14 135.28 160.17 116.81 177.29 114.4"/><polygon class="cls-3" points="160.17 116.81 137.38 104.41 154.5 102 177.29 114.4 160.17 116.81"/><polygon class="cls-3" points="125.84 177.04 103.05 164.64 120.17 162.23 142.96 174.63 125.84 177.04"/><polygon class="cls-4" points="125.81 195.51 103.01 183.11 103.05 164.64 125.84 177.04 125.81 195.51"/><polygon class="cls-2" points="142.96 174.63 142.93 193.1 125.81 195.51 125.84 177.04 142.96 174.63"/><polygon points="211.66 35.69 188.86 23.29 188.9 4.81 211.69 17.21 211.66 35.69"/><polygon points="228.81 14.8 228.78 33.28 211.66 35.69 211.69 17.21 228.81 14.8"/><polygon points="211.69 17.21 188.9 4.81 206.02 2.41 228.81 14.8 211.69 17.21"/><polygon class="cls-4" points="177.32 95.93 154.53 83.53 154.57 65.05 177.36 77.45 177.32 95.93"/><polygon class="cls-2" points="194.48 75.04 194.44 93.52 177.32 95.93 177.36 77.45 194.48 75.04"/><polygon class="cls-3" points="177.36 77.45 154.57 65.05 171.69 62.65 194.48 75.04 177.36 77.45"/><polygon class="cls-3" points="143.03 137.68 120.23 125.28 137.34 122.88 160.14 135.28 143.03 137.68"/><polygon class="cls-2" points="160.14 135.28 160.1 153.75 142.99 156.16 143.03 137.68 160.14 135.28"/><polygon class="cls-4" points="142.99 156.16 120.2 143.76 120.23 125.28 143.03 137.68 142.99 156.16"/><polygon class="cls-3" points="108.69 197.91 85.9 185.51 103.01 183.11 125.81 195.51 108.69 197.91"/><polygon class="cls-2" points="125.81 195.51 125.77 213.98 108.65 216.39 108.69 197.91 125.81 195.51"/><polygon class="cls-4" points="108.65 216.39 85.86 203.99 85.9 185.51 108.69 197.91 108.65 216.39"/><polygon class="cls-2" points="211.66 35.69 211.62 54.16 194.51 56.56 194.55 38.09 211.66 35.69"/><polygon class="cls-3" points="194.55 38.09 171.75 25.69 188.86 23.29 211.66 35.69 194.55 38.09"/><polygon class="cls-4" points="194.51 56.56 171.72 44.16 171.75 25.69 194.55 38.09 194.51 56.56"/><polygon class="cls-2" points="177.32 95.93 177.29 114.4 160.17 116.81 160.21 98.33 177.32 95.93"/><polygon class="cls-4" points="160.17 116.81 137.38 104.41 137.41 85.93 160.21 98.33 160.17 116.81"/><polygon class="cls-3" points="160.21 98.33 137.41 85.93 154.53 83.53 177.32 95.93 160.21 98.33"/><polygon class="cls-2" points="142.99 156.16 142.96 174.63 125.84 177.04 125.88 158.56 142.99 156.16"/><polygon class="cls-4" points="125.84 177.04 103.05 164.64 103.08 146.16 125.88 158.56 125.84 177.04"/><polygon class="cls-3" points="125.88 158.56 103.08 146.16 120.2 143.76 142.99 156.16 125.88 158.56"/><polygon points="108.65 216.39 108.62 234.87 108.18 234.93 91.51 237.27 91.54 218.79 108.65 216.39"/><polygon points="91.51 237.27 68.72 224.87 68.75 206.39 91.54 218.79 91.51 237.27"/><polygon points="91.54 218.79 68.75 206.39 85.86 203.99 108.65 216.39 91.54 218.79"/><polygon class="cls-4" points="177.36 77.45 154.57 65.05 154.6 46.57 177.39 58.97 177.36 77.45"/><polygon class="cls-2" points="194.51 56.56 194.48 75.04 177.36 77.45 177.39 58.97 194.51 56.56"/><polygon class="cls-3" points="177.39 58.97 154.6 46.57 171.72 44.16 194.51 56.56 177.39 58.97"/><polygon class="cls-4" points="143.03 137.68 120.23 125.28 120.27 106.81 143.06 119.21 143.03 137.68"/><polygon class="cls-3" points="143.06 119.21 120.27 106.81 137.38 104.41 160.17 116.81 143.06 119.21"/><polygon class="cls-2" points="160.17 116.81 160.14 135.28 143.03 137.68 143.06 119.21 160.17 116.81"/><polygon class="cls-3" points="108.72 179.44 85.93 167.05 103.05 164.64 125.84 177.04 108.72 179.44"/><polygon class="cls-2" points="125.84 177.04 125.81 195.51 108.69 197.91 108.72 179.44 125.84 177.04"/><polygon class="cls-4" points="108.69 197.91 85.9 185.51 85.93 167.05 108.72 179.44 108.69 197.91"/><polygon points="194.58 19.62 171.79 7.22 188.9 4.81 211.69 17.21 194.58 19.62"/><polygon points="211.69 17.21 211.66 35.69 194.55 38.09 194.58 19.62 211.69 17.21"/><polygon points="194.55 38.09 171.75 25.69 171.79 7.22 194.58 19.62 194.55 38.09"/><polygon class="cls-4" points="160.21 98.33 137.41 85.93 137.45 67.46 160.24 79.86 160.21 98.33"/><polygon class="cls-2" points="177.36 77.45 177.32 95.93 160.21 98.33 160.24 79.86 177.36 77.45"/><polygon class="cls-3" points="160.24 79.86 137.45 67.46 154.57 65.05 177.36 77.45 160.24 79.86"/><polygon class="cls-4" points="125.88 158.56 103.08 146.16 103.12 127.69 125.91 140.09 125.88 158.56"/><polygon class="cls-2" points="143.03 137.68 142.99 156.16 125.88 158.56 125.91 140.09 143.03 137.68"/><polygon class="cls-3" points="125.91 140.09 103.12 127.69 120.23 125.28 143.03 137.68 125.91 140.09"/><polygon class="cls-2" points="108.69 197.91 108.65 216.39 91.54 218.79 91.58 200.32 108.69 197.91"/><polygon class="cls-3" points="91.58 200.32 68.78 187.92 85.9 185.51 108.69 197.91 91.58 200.32"/><polygon class="cls-4" points="91.54 218.79 68.75 206.39 68.78 187.92 91.58 200.32 91.54 218.79"/><polygon points="177.43 40.5 154.63 28.1 171.75 25.69 194.55 38.09 177.43 40.5"/><polygon points="194.55 38.09 194.51 56.56 177.39 58.97 177.43 40.5 194.55 38.09"/><polygon points="177.39 58.97 154.6 46.57 154.63 28.1 177.43 40.5 177.39 58.97"/><polygon class="cls-4" points="143.06 119.21 120.27 106.81 120.3 88.34 143.1 100.74 143.06 119.21"/><polygon class="cls-2" points="160.21 98.33 160.17 116.81 143.06 119.21 143.1 100.74 160.21 98.33"/><polygon class="cls-3" points="143.1 100.74 120.3 88.34 137.41 85.93 160.21 98.33 143.1 100.74"/><polygon class="cls-4" points="108.72 179.44 85.93 167.05 85.96 148.57 108.76 160.97 108.72 179.44"/><polygon class="cls-2" points="125.88 158.56 125.84 177.04 108.72 179.44 108.76 160.97 125.88 158.56"/><polygon class="cls-3" points="108.76 160.97 85.96 148.57 103.08 146.16 125.88 158.56 108.76 160.97"/><polygon points="160.28 61.37 137.48 48.97 154.6 46.57 177.39 58.97 160.28 61.37"/><polygon points="177.39 58.97 177.36 77.45 160.24 79.86 160.28 61.37 177.39 58.97"/><polygon points="160.24 79.86 137.45 67.46 137.48 48.97 160.28 61.37 160.24 79.86"/><polygon class="cls-3" points="125.94 121.62 103.15 109.22 120.27 106.81 143.06 119.21 125.94 121.62"/><polygon class="cls-2" points="143.06 119.21 143.03 137.68 125.91 140.09 125.94 121.62 143.06 119.21"/><polygon class="cls-4" points="125.91 140.09 103.12 127.69 103.15 109.22 125.94 121.62 125.91 140.09"/><polygon class="cls-4" points="91.58 200.32 68.78 187.92 68.82 169.45 91.61 181.85 91.58 200.32"/><polygon class="cls-3" points="91.61 181.85 68.82 169.45 85.93 167.05 108.72 179.44 91.61 181.85"/><polygon class="cls-2" points="108.72 179.44 108.69 197.91 91.58 200.32 91.61 181.85 108.72 179.44"/><polygon class="cls-3" points="143.13 82.26 120.34 69.86 137.45 67.46 160.24 79.86 143.13 82.26"/><polygon class="cls-2" points="160.24 79.86 160.21 98.33 143.1 100.74 143.13 82.26 160.24 79.86"/><polygon class="cls-4" points="143.1 100.74 120.3 88.34 120.34 69.86 143.13 82.26 143.1 100.74"/><polygon class="cls-2" points="125.91 140.09 125.88 158.56 108.76 160.97 108.79 142.49 125.91 140.09"/><polygon class="cls-3" points="108.79 142.49 86 130.09 103.12 127.69 125.91 140.09 108.79 142.49"/><polygon class="cls-4" points="108.76 160.97 85.96 148.57 86 130.09 108.79 142.49 108.76 160.97"/><polygon points="74.45 202.72 51.66 190.32 68.78 187.92 91.58 200.32 74.45 202.72"/><polygon points="74.42 221.2 51.63 208.8 51.66 190.32 74.45 202.72 74.42 221.2"/><polygon points="91.58 200.32 91.54 218.79 74.42 221.2 74.45 202.72 91.58 200.32"/><polygon class="cls-2" points="143.1 100.74 143.06 119.21 125.94 121.62 125.98 103.14 143.1 100.74"/><polygon class="cls-3" points="125.98 103.14 103.19 90.74 120.3 88.34 143.1 100.74 125.98 103.14"/><polygon class="cls-4" points="125.94 121.62 103.15 109.22 103.19 90.74 125.98 103.14 125.94 121.62"/><polygon class="cls-4" points="91.61 181.85 68.82 169.45 68.85 150.97 91.65 163.37 91.61 181.85"/><polygon class="cls-2" points="108.76 160.97 108.72 179.44 91.61 181.85 91.65 163.37 108.76 160.97"/><polygon class="cls-3" points="91.65 163.37 68.85 150.97 85.96 148.57 108.76 160.97 91.65 163.37"/><polygon points="143.13 82.26 120.34 69.86 120.37 51.38 143.17 63.78 143.13 82.26"/><polygon points="143.17 63.78 120.37 51.38 137.48 48.97 160.28 61.37 143.17 63.78"/><polygon points="160.28 61.37 160.24 79.86 143.13 82.26 143.17 63.78 160.28 61.37"/><polygon class="cls-2" points="125.94 121.62 125.91 140.09 108.79 142.49 108.83 124.03 125.94 121.62"/><polygon class="cls-3" points="108.83 124.03 86.03 111.63 103.15 109.22 125.94 121.62 108.83 124.03"/><polygon class="cls-4" points="108.79 142.49 86 130.09 86.03 111.63 108.83 124.03 108.79 142.49"/><polygon class="cls-2" points="91.61 181.85 91.58 200.32 74.45 202.72 74.49 184.26 91.61 181.85"/><polygon class="cls-3" points="74.49 184.26 51.69 171.86 68.82 169.45 91.61 181.85 74.49 184.26"/><polygon class="cls-4" points="74.45 202.72 51.66 190.32 51.69 171.86 74.49 184.26 74.45 202.72"/><polygon class="cls-4" points="125.98 103.14 103.19 90.74 103.22 72.27 126.01 84.67 125.98 103.14"/><polygon class="cls-2" points="143.13 82.26 143.1 100.74 125.98 103.14 126.01 84.67 143.13 82.26"/><polygon class="cls-3" points="126.01 84.67 103.22 72.27 120.34 69.86 143.13 82.26 126.01 84.67"/><polygon class="cls-2" points="108.79 142.49 108.76 160.97 91.65 163.37 91.68 144.9 108.79 142.49"/><polygon class="cls-4" points="91.65 163.37 68.85 150.97 68.89 132.5 91.68 144.9 91.65 163.37"/><polygon class="cls-3" points="91.68 144.9 68.89 132.5 86 130.09 108.79 142.49 91.68 144.9"/><polygon class="cls-4" points="108.83 124.03 86.03 111.63 86.07 93.15 108.86 105.55 108.83 124.03"/><polygon class="cls-2" points="125.98 103.14 125.94 121.62 108.83 124.03 108.86 105.55 125.98 103.14"/><polygon class="cls-3" points="108.86 105.55 86.07 93.15 103.19 90.74 125.98 103.14 108.86 105.55"/><polygon class="cls-4" points="74.49 184.26 51.69 171.86 51.73 153.38 74.52 165.78 74.49 184.26"/><polygon class="cls-2" points="91.65 163.37 91.61 181.85 74.49 184.26 74.52 165.78 91.65 163.37"/><polygon class="cls-3" points="74.52 165.78 51.73 153.38 68.85 150.97 91.65 163.37 74.52 165.78"/><polygon class="cls-3" points="126.05 66.18 103.25 53.78 120.37 51.38 143.17 63.78 126.05 66.18"/><polygon class="cls-2" points="143.17 63.78 143.13 82.26 126.01 84.67 126.05 66.18 143.17 63.78"/><polygon class="cls-4" points="126.01 84.67 103.22 72.27 103.25 53.78 126.05 66.18 126.01 84.67"/><polygon class="cls-2" points="108.83 124.03 108.79 142.49 91.68 144.9 91.72 126.43 108.83 124.03"/><polygon class="cls-3" points="91.72 126.43 68.92 114.03 86.03 111.63 108.83 124.03 91.72 126.43"/><polygon class="cls-4" points="91.68 144.9 68.89 132.5 68.92 114.03 91.72 126.43 91.68 144.9"/><polygon points="57.33 205.13 34.54 192.73 34.58 174.26 57.37 186.66 57.33 205.13"/><polygon points="74.49 184.26 74.45 202.72 57.33 205.13 57.37 186.66 74.49 184.26"/><polygon points="57.37 186.66 34.58 174.26 51.69 171.86 74.49 184.26 57.37 186.66"/><polygon class="cls-3" points="108.89 87.07 86.1 74.67 103.22 72.27 126.01 84.67 108.89 87.07"/><polygon class="cls-4" points="108.86 105.55 86.07 93.15 86.1 74.67 108.89 87.07 108.86 105.55"/><polygon class="cls-2" points="126.01 84.67 125.98 103.14 108.86 105.55 108.89 87.07 126.01 84.67"/><polygon class="cls-3" points="74.56 147.3 51.76 134.91 68.89 132.5 91.68 144.9 74.56 147.3"/><polygon class="cls-2" points="91.68 144.9 91.65 163.37 74.52 165.78 74.56 147.3 91.68 144.9"/><polygon class="cls-4" points="74.52 165.78 51.73 153.38 51.76 134.91 74.56 147.3 74.52 165.78"/><polygon points="143.2 45.31 143.17 63.78 126.05 66.18 126.08 47.71 143.2 45.31"/><polygon points="126.08 47.71 103.29 35.31 120.41 32.91 143.2 45.31 126.08 47.71"/><polygon points="126.05 66.18 103.25 53.78 103.29 35.31 126.08 47.71 126.05 66.18"/><polygon class="cls-2" points="108.86 105.55 108.83 124.03 91.72 126.43 91.75 107.95 108.86 105.55"/><polygon class="cls-3" points="91.75 107.95 68.96 95.55 86.07 93.15 108.86 105.55 91.75 107.95"/><polygon class="cls-4" points="91.72 126.43 68.92 114.03 68.96 95.55 91.75 107.95 91.72 126.43"/><polygon class="cls-4" points="57.85 168.6 35.06 156.2 35.06 155.72 57.85 168.12 57.85 168.6"/><polygon class="cls-3" points="57.85 168.12 35.06 155.72 51.73 153.38 74.52 165.78 57.85 168.12"/><polygon class="cls-3" points="57.4 168.66 34.61 156.26 35.06 156.2 57.85 168.6 57.4 168.66"/><polygon class="cls-4" points="57.37 186.66 34.58 174.26 34.61 156.26 57.4 168.66 57.37 186.66"/><polygon class="cls-2" points="74.52 165.78 74.49 184.26 57.37 186.66 57.4 168.66 57.85 168.6 57.85 168.12 74.52 165.78"/><polygon class="cls-2" points="126.05 66.18 126.01 84.67 108.89 87.07 108.93 68.59 126.05 66.18"/><polygon class="cls-3" points="108.93 68.59 86.14 56.19 103.25 53.78 126.05 66.18 108.93 68.59"/><polygon class="cls-4" points="108.89 87.07 86.1 74.67 86.14 56.19 108.93 68.59 108.89 87.07"/><polygon class="cls-3" points="74.59 128.84 51.8 116.44 68.92 114.03 91.72 126.43 74.59 128.84"/><polygon class="cls-2" points="91.72 126.43 91.68 144.9 74.56 147.3 74.59 128.84 91.72 126.43"/><polygon class="cls-4" points="74.56 147.3 51.76 134.91 51.8 116.44 74.59 128.84 74.56 147.3"/><polygon class="cls-4" points="91.75 107.95 68.96 95.55 68.99 77.08 91.78 89.48 91.75 107.95"/><polygon class="cls-2" points="108.89 87.07 108.86 105.55 91.75 107.95 91.78 89.48 108.89 87.07"/><polygon class="cls-3" points="91.78 89.48 68.99 77.08 86.1 74.67 108.89 87.07 91.78 89.48"/><polygon class="cls-4" points="57.85 168.12 35.06 155.72 35.09 137.25 57.88 149.65 57.85 168.12"/><polygon class="cls-3" points="57.88 149.65 35.09 137.25 51.76 134.91 74.56 147.3 57.88 149.65"/><polygon class="cls-4" points="57.88 149.65 35.09 137.25 35.09 136.77 57.89 149.17 57.88 149.65"/><polygon points="56.96 167.76 34.17 155.37 34.2 137.86 56.99 150.26 56.96 167.76"/><polygon points="40.29 171.07 17.5 158.67 34.61 156.26 57.4 168.66 40.29 171.07"/><polygon points="40.26 189.07 17.46 176.67 17.5 158.67 40.29 171.07 40.26 189.07"/><polygon points="40.73 170.04 17.94 157.65 34.17 155.37 56.96 167.76 40.73 170.04"/><polygon points="40.77 152.54 17.97 140.14 34.2 137.86 56.99 150.26 40.77 152.54"/><polygon points="56.99 150.26 56.96 167.76 40.73 170.04 40.77 152.54 56.99 150.26"/><polygon points="40.73 170.04 17.94 157.65 17.97 140.14 40.77 152.54 40.73 170.04"/><path d="M177.94,232.48l.45-.07v.48l0,18.47v.48l-.45.06-17.11,2.41-.45.06,0-19,.45-.06L177.94,233ZM177.47,251l0-17.51-16.23,2.28,0,17.51L177.47,251" transform="translate(-120.51 -83.24)"/><polygon class="cls-2" points="74.56 147.3 74.52 165.78 57.85 168.12 57.88 149.65 74.56 147.3"/><polygon points="57.44 149.23 34.65 136.84 35.09 136.77 57.89 149.17 57.44 149.23"/><polygon points="57.44 149.71 34.64 137.31 34.65 136.84 57.44 149.23 57.44 149.71"/><polygon class="cls-4" points="109.41 50.53 86.62 38.13 86.62 37.66 109.41 50.06 109.41 50.53"/><polygon class="cls-3" points="109.41 50.06 86.62 37.66 103.29 35.31 126.08 47.71 109.41 50.06"/><polygon class="cls-4" points="108.93 68.59 86.14 56.19 86.17 38.2 108.96 50.59 108.93 68.59"/><polygon class="cls-2" points="126.08 47.71 126.05 66.18 108.93 68.59 108.96 50.59 109.41 50.53 109.41 50.06 126.08 47.71"/><polygon class="cls-3" points="108.96 50.59 86.17 38.2 86.62 38.13 109.41 50.53 108.96 50.59"/><polygon class="cls-4" points="74.59 128.84 51.8 116.44 51.83 97.96 74.62 110.36 74.59 128.84"/><polygon class="cls-3" points="74.62 110.36 51.83 97.96 68.96 95.55 91.75 107.95 74.62 110.36"/><polygon class="cls-2" points="91.75 107.95 91.72 126.43 74.59 128.84 74.62 110.36 91.75 107.95"/><polygon points="57.4 168.66 57.37 186.66 40.26 189.07 40.29 171.07 57.4 168.66"/><polygon class="cls-3" points="91.82 70.99 69.03 58.59 86.14 56.19 108.93 68.59 91.82 70.99"/><polygon class="cls-4" points="91.78 89.48 68.99 77.08 69.03 58.59 91.82 70.99 91.78 89.48"/><polygon class="cls-2" points="108.93 68.59 108.89 87.07 91.78 89.48 91.82 70.99 108.93 68.59"/><polygon class="cls-3" points="57.47 131.24 34.68 118.84 51.8 116.44 74.59 128.84 57.47 131.24"/><polygon class="cls-2" points="74.59 128.84 74.56 147.3 57.88 149.65 57.89 149.17 57.44 149.23 57.47 131.24 74.59 128.84"/><polygon class="cls-4" points="57.44 149.23 34.65 136.84 34.68 118.84 57.47 131.24 57.44 149.23"/><polygon points="126.12 29.24 126.08 47.71 109.41 50.06 109.45 31.58 126.12 29.24"/><polygon points="109.45 31.58 86.65 19.18 103.32 16.84 126.12 29.24 109.45 31.58"/><polygon points="109.41 50.06 86.62 37.66 86.65 19.18 109.45 31.58 109.41 50.06"/><polygon points="108.52 49.7 85.73 37.3 85.76 19.79 108.56 32.19 108.52 49.7"/><polygon class="cls-2" points="91.78 89.48 91.75 107.95 74.62 110.36 74.66 91.88 91.78 89.48"/><polygon class="cls-3" points="74.66 91.88 51.87 79.48 68.99 77.08 91.78 89.48 74.66 91.88"/><polygon class="cls-4" points="74.62 110.36 51.83 97.96 51.87 79.48 74.66 91.88 74.62 110.36"/><polygon points="40.33 152.12 17.53 139.72 34.64 137.31 57.44 149.71 40.33 152.12"/><polygon points="39.84 171.13 17.05 158.73 17.09 139.78 39.88 152.18 39.84 171.13"/><polygon class="cls-4" points="40.33 152.12 17.53 139.72 17.57 121.72 40.36 134.12 40.33 152.12"/><polygon points="39.88 152.18 17.09 139.78 17.53 139.72 40.33 152.12 39.88 152.18"/><polygon class="cls-3" points="91.85 53 69.06 40.6 86.17 38.2 108.96 50.59 91.85 53"/><polygon class="cls-2" points="108.96 50.59 108.93 68.59 91.82 70.99 91.85 53 108.96 50.59"/><polygon class="cls-4" points="91.82 70.99 69.03 58.59 69.06 40.6 91.85 53 91.82 70.99"/><polygon points="92.29 51.98 69.5 39.58 85.73 37.3 108.52 49.7 92.29 51.98"/><polygon points="91.85 53 69.06 40.6 69.06 40.13 91.85 52.52 91.85 53"/><polygon points="92.3 51.98 69.5 39.58 69.53 22.07 92.33 34.47 92.3 51.98"/><polygon points="108.56 32.19 108.52 49.7 92.3 51.98 92.33 34.47 108.56 32.19"/><polygon points="92.33 34.47 69.53 22.07 85.76 19.79 108.56 32.19 92.33 34.47"/><polygon points="91.85 52.52 69.06 40.13 69.09 21.65 91.89 34.05 91.85 52.52"/><polygon points="91.44 34.11 68.65 21.71 69.09 21.65 91.89 34.05 91.44 34.11"/><path d="M212,116.88l18-2.53v.47l0,18.48v.47l-.45.07-17.11,2.4v-.47l0-18.48-.44.06ZM229,132.94l0-17.51-16.23,2.28,0,17.51L229,132.94" transform="translate(-120.51 -83.24)"/><polygon class="cls-3" points="91.4 52.59 68.61 40.19 69.06 40.13 91.85 52.52 91.4 52.59"/><polygon class="cls-2" points="74.62 110.36 74.59 128.84 57.47 131.24 57.51 112.77 74.62 110.36"/><polygon class="cls-4" points="57.47 131.24 34.68 118.84 34.71 100.37 57.51 112.77 57.47 131.24"/><polygon class="cls-3" points="57.51 112.77 34.71 100.37 51.83 97.96 74.62 110.36 57.51 112.77"/><polygon class="cls-2" points="91.82 70.99 91.78 89.48 74.66 91.88 74.69 73.4 91.82 70.99"/><polygon class="cls-4" points="74.66 91.88 51.87 79.48 51.9 61 74.69 73.4 74.66 91.88"/><polygon class="cls-3" points="74.69 73.4 51.9 61 69.03 58.59 91.82 70.99 74.69 73.4"/><polygon class="cls-4" points="40.8 134.06 18.01 121.66 18.01 121.19 40.8 133.59 40.8 134.06"/><polygon class="cls-3" points="40.8 133.59 18.01 121.19 34.68 118.84 57.47 131.24 40.8 133.59"/><polygon class="cls-3" points="40.36 134.12 17.57 121.72 18.01 121.66 40.8 134.06 40.36 134.12"/><polygon class="cls-2" points="57.47 131.24 57.44 149.23 57.44 149.71 40.33 152.12 40.36 134.12 40.8 134.06 40.8 133.59 57.47 131.24"/><polygon points="91.44 34.11 68.64 21.71 68.65 21.24 91.44 33.64 91.44 34.11"/><polygon points="91.44 33.64 68.65 21.24 86.65 18.71 109.45 31.11 91.44 33.64"/><polygon class="cls-4" points="57.51 112.77 34.71 100.37 34.75 81.89 57.54 94.29 57.51 112.77"/><polygon class="cls-2" points="74.66 91.88 74.62 110.36 57.51 112.77 57.54 94.29 74.66 91.88"/><polygon class="cls-3" points="57.54 94.29 34.75 81.89 51.87 79.48 74.66 91.88 57.54 94.29"/><polygon class="cls-4" points="74.69 73.4 51.9 61 51.93 42.53 74.73 54.93 74.69 73.4"/><polygon class="cls-3" points="74.73 54.93 51.93 42.53 68.61 40.19 91.4 52.59 74.73 54.93"/><polygon class="cls-2" points="91.85 52.52 91.85 53 91.82 70.99 74.69 73.4 74.73 54.93 91.4 52.59 91.85 52.52"/><polygon class="cls-2" points="57.51 112.77 57.47 131.24 40.8 133.59 40.84 115.11 57.51 112.77"/><polygon class="cls-3" points="40.84 115.11 18.04 102.71 34.71 100.37 57.51 112.77 40.84 115.11"/><polygon class="cls-4" points="40.8 133.59 18.01 121.19 18.04 102.71 40.84 115.11 40.8 133.59"/><polygon class="cls-4" points="40.84 115.11 18.04 102.71 18.04 102.22 40.84 114.63 40.84 115.11"/><polygon points="39.91 133.23 17.12 120.83 17.15 103.31 39.95 115.71 39.91 133.23"/><polygon points="40.4 115.17 17.6 102.77 17.6 102.29 40.4 114.69 40.4 115.17"/><polygon points="40.4 114.69 17.6 102.29 18.04 102.22 40.84 114.63 40.4 114.69"/><polygon class="cls-4" points="57.54 94.29 34.75 81.89 34.78 63.41 57.57 75.81 57.54 94.29"/><polygon class="cls-3" points="57.57 75.81 34.78 63.41 51.9 61 74.69 73.4 57.57 75.81"/><polygon class="cls-2" points="74.69 73.4 74.66 91.88 57.54 94.29 57.57 75.81 74.69 73.4"/><polygon points="23.21 154.52 0.41 142.12 0.45 124.13 23.24 136.53 23.21 154.52"/><polygon points="40.36 134.12 40.33 152.12 39.88 152.18 23.21 154.52 23.24 136.53 40.36 134.12"/><polygon points="23.24 136.53 0.45 124.13 17.57 121.72 40.36 134.12 23.24 136.53"/><polygon points="23.68 135.51 0.89 123.11 17.12 120.83 39.91 133.23 23.68 135.51"/><polygon points="91.89 34.05 91.85 52.52 91.4 52.59 74.73 54.93 74.76 36.45 91.44 34.11 91.89 34.05"/><polygon points="74.76 36.45 51.97 24.06 68.65 21.71 91.44 34.11 74.76 36.45"/><polygon points="74.73 54.93 51.93 42.53 51.97 24.06 74.76 36.45 74.73 54.93"/><polygon class="cls-2" points="57.54 94.29 57.51 112.77 40.84 115.11 40.84 114.63 40.4 114.69 40.43 96.69 57.54 94.29"/><polygon class="cls-4" points="40.4 114.69 17.6 102.29 17.64 84.3 40.43 96.69 40.4 114.69"/><polygon class="cls-3" points="40.43 96.69 17.64 84.3 34.75 81.89 57.54 94.29 40.43 96.69"/><polygon points="57.61 57.34 34.81 44.94 51.93 42.53 74.73 54.93 57.61 57.34"/><polygon points="57.57 75.81 34.78 63.41 34.81 44.94 57.61 57.34 57.57 75.81"/><polygon points="74.73 54.93 74.69 73.4 57.57 75.81 57.61 57.34 74.73 54.93"/><polygon points="23.68 135.51 0.89 123.11 0.92 105.59 23.72 117.99 23.68 135.51"/><polygon points="23.72 117.99 0.92 105.59 17.15 103.31 39.95 115.71 23.72 117.99"/><polygon points="39.95 115.71 39.91 133.23 23.68 135.51 23.72 117.99 39.95 115.71"/><polygon points="23.28 117.58 0.48 105.18 17.6 102.77 40.4 115.17 23.28 117.58"/><polygon points="23.28 117.58 0.48 105.18 0.48 104.69 23.28 117.09 23.28 117.58"/><path d="M160.9,197.93l.44-.06v.48l0,18.48v.47l-.44.06-17.12,2.41-.45.06,0-19.43.44-.07v.49l17.12-2.41Zm-.48,18.54,0-17.52-16.23,2.28,0,17.52,16.23-2.28" transform="translate(-120.51 -83.24)"/><polygon points="40.43 96.69 40.4 114.69 40.4 115.17 23.28 117.58 23.28 117.09 23.31 99.1 40.43 96.69"/><polygon points="23.28 117.09 0.48 104.69 0.52 86.7 23.31 99.1 23.28 117.09"/><polygon points="22.83 117.16 0.04 104.76 0.48 104.69 23.28 117.09 22.83 117.16"/><polygon points="22.79 136.59 0 124.19 0.04 104.76 22.83 117.16 22.79 136.59"/><polygon points="40.43 96.69 17.64 84.3 17.67 65.81 40.46 78.21 40.43 96.69"/><polygon points="57.57 75.81 57.54 94.29 40.43 96.69 40.46 78.21 57.57 75.81"/><polygon points="40.46 78.21 17.67 65.81 34.78 63.41 57.57 75.81 40.46 78.21"/><polygon points="23.31 99.1 0.52 86.7 17.64 84.3 40.43 96.69 23.31 99.1"/></g></svg>